<svg fill="none" height="28" viewBox="0 0 24 28" width="24" xmlns="http://www.w3.org/2000/svg" xmlns:xlink="http://www.w3.org/1999/xlink"><clipPath id="a"><path d="m0 0h24v28h-24z"/></clipPath><g clip-path="url(#a)" clip-rule="evenodd" fill="#000" fill-rule="evenodd"><path d="m14.4589 9.97416c.874-.42709 1.986-1.05579 3.0995-1.91716.2347.47777.2605.89469.1395 1.23135-.0857.23725-.2472.44361-.4596.60778-.23.17747-.5173.30657-.8348.37637-.6025.133-1.3059.0554-1.9446-.29834zm.1515 4.37604 1.1569.6549c-2.3623 1.2975-3.0044 3.7068-3.7673 6.0535-.7628-2.3467-1.4051-4.756-3.76724-6.0535l1.15695-.6549c.11192-.0415.20758-.1166.27328-.2146.06569-.098.09805-.2138.09243-.3309-.106-2.1978.49948-3.1696 1.31628-3.7799.293-.21855.6128-.32831.9283-.32831s.6353.10976.9284.32831c.8167.6103 1.4223 1.5821 1.3163 3.7799-.0057.1171.0267.2329.0924.3309s.1614.1731.2733.2146zm-2.6104-14.3502c1.3373.0351867 2.678.289613 3.8415.78456.8057.34319 1.5575.79651 2.2383 1.33859.3074.24472.5606.48113.8394.75329.7521.02548 1.8513-.79333 2.3616-1.55951-.8782 2.82147-4.8857 6.15338-7.66 7.42831-.0012-.00047-.0019-.00112-.0028-.00168-.4979-.37259-1.0579-.55888-1.618-.55888s-1.12.18629-1.6179.55888c-.0009.00047-.0016.00131-.0028.00168-2.77445-1.27493-6.78178-4.60684-7.65997-7.42831.51019.76618 1.60933 1.58499 2.36143 1.55951.27895-.27207.53209-.50857.83943-.75329.68076-.54208 1.43257-.9954 2.23828-1.33859 1.16362-.494947 2.50433-.7493733 3.84153-.78456zm-2.45886 9.97416c-.87391-.42709-1.9861-1.05579-3.09943-1.91716-.23476.47777-.26048.89469-.13962 1.23135.08581.23725.24733.44361.45962.60778.2301.17747.51733.30657.83486.37637.60247.133 1.30581.0554 1.94457-.29834z"/><path d="m18.7778 7.00152c.613-.6062 1.1531-1.27718 1.5873-1.87591l.2206.40684c.7101 1.39225 1.0791 2.77891 1.0791 4.33944l-.0016 2.47631.0134 1.2837c.0514 3.1515.7472 6.3401 2.3234 9.258l-3.2978-2.606-2.3334 3.7108-2.4515-2.2615-3.9173 6.2299-3.91733-6.2298-2.45134 2.2615-2.33343-3.7108-3.2979 2.606c1.57619-2.9179 2.272-6.1065 2.32352-9.258l.01334-1.2837-.00153-2.47632c0-1.56062.36886-2.94728 1.07915-4.33944l.22047-.40684c.43429.59874.97429 1.26962 1.58734 1.87591l-.19143.38967c-.37191.75684-.49505 1.60309-.20534 2.4079.18677.51842.52762.96292.96705 1.30232.42667.3295.93162.5517 1.46029.6683.34438.076.69524.1073 1.04381.0966-.08134.4519-.11686.9205-.11915 1.398l-3.11085 1.7608 2.40057 1.3187c.19187.1054.37452.2262.54609.3611 1.97915 1.7414 3.16907 6.8931 3.98677 9.4095.8178-2.5164 2.0076-7.6681 3.9869-9.4095.1715-.1349.3542-.2557.546-.3611l2.4006-1.3187-3.1109-1.7608c-.0023-.4775-.0378-.9461-.1192-1.398.3486.0107.6995-.0206 1.0438-.0966.5287-.1166 1.0337-.3388 1.4603-.6683.4394-.3394.7803-.7839.967-1.30232.2898-.80481.1665-1.65097-.2053-2.4079l-.1914-.38967z"/></g></svg>