<svg width="26" height="28" viewBox="0 0 26 28" fill="none" xmlns="http://www.w3.org/2000/svg">
<g clip-path="url(#clip0_11_8)">
<path fill-rule="evenodd" clip-rule="evenodd" d="M9.65881 1.59794C7.87965 2.46588 6.42405 3.20033 6.42436 3.2302C6.42516 3.3073 10.6944 5.3321 10.8459 5.32717C10.9149 5.32501 11.4149 5.10945 11.9571 4.84821L12.943 4.37332L14.0197 4.89163L15.0964 5.41004L16.8597 4.66804C19.5166 3.54996 19.7926 3.42744 19.7493 3.38627C19.6919 3.33166 18.7389 2.85222 16.1534 1.57748C14.9039 0.961391 13.6911 0.357332 13.4583 0.235101C13.2255 0.112869 13.0032 0.0145423 12.9644 0.0164456C12.9256 0.0183489 11.438 0.730026 9.65881 1.59794ZM1.85543 5.38217L0.00334138 6.27808V10.2101C0.00334138 12.3727 0.0276611 14.142 0.0574923 14.142C0.0872202 14.142 0.998451 13.7721 2.0824 13.32L4.05323 12.4979V8.35337L5.0163 8.84474C5.75843 9.22305 6.50101 9.60058 7.24403 9.97734L8.50866 10.6186L9.07139 10.3803C9.42431 10.2306 9.77652 10.0794 10.128 9.92683C10.3996 9.80837 11.0664 9.52713 11.6097 9.30173C12.1529 9.07624 12.6558 8.84949 12.7271 8.79781C12.8219 8.72916 11.6668 8.13139 8.45482 6.58674C6.0337 5.4224 3.9751 4.47345 3.88016 4.478C3.78523 4.48255 2.8741 4.88937 1.85543 5.38217ZM20.0831 5.63376C18.8217 6.16704 17.7888 6.62468 17.7876 6.65078C17.7865 6.67684 18.474 7.05967 19.3155 7.50136C20.1569 7.94316 20.8453 8.32824 20.8453 8.35724C20.8453 8.38618 20.1008 8.72403 19.1908 9.10818C18.2808 9.49223 15.9806 10.465 14.0791 11.27L7.70797 13.967C6.10531 14.6455 4.6607 15.257 4.49773 15.3261C1.22422 16.7139 0.324458 17.099 0.200896 17.1651C0.0766449 17.2316 0.0485016 17.6183 0.0263865 19.5588L0 21.8732L1.65622 22.6635L3.31241 23.4538L5.60896 22.4831C6.87211 21.9493 7.90552 21.4846 7.90552 21.4504C7.90552 21.4162 7.67211 21.2738 7.38695 21.1337C7.10166 20.9937 6.51275 20.6836 6.07813 20.4446C5.64355 20.2055 5.2102 19.9861 5.11506 19.9571C5.01995 19.928 4.94351 19.8773 4.94506 19.8442C4.94665 19.8112 5.95795 19.3613 7.19226 18.8445C9.58968 17.8406 11.4244 17.067 15.3632 15.3988C17.1245 14.6531 18.886 13.9078 20.6478 13.1629C22.1961 12.5085 23.9963 11.7441 24.6483 11.4643L25.8336 10.9557L25.8599 8.6149L25.8864 6.27421L24.2066 5.46675C23.2827 5.0227 22.4929 4.66046 22.4515 4.66178C22.4102 4.66301 21.3444 5.10035 20.0831 5.63376ZM25.3835 14.0784C25.136 14.1916 24.6471 14.4036 24.297 14.5495C23.9469 14.6953 23.2827 14.976 22.8209 15.1734L21.9813 15.532L21.9621 17.587C21.9515 18.7172 21.9071 19.6369 21.8633 19.6309C21.764 19.6171 20.1903 18.8613 18.6085 18.0675C17.4669 17.4947 17.3951 17.4719 17.1269 17.5964C16.9718 17.6683 16.0448 18.0577 15.0669 18.4617C14.089 18.8657 13.257 19.2226 13.2179 19.255C13.1788 19.2872 15.147 20.2862 17.5916 21.475L22.0363 23.6365L23.935 22.7167C24.9792 22.2109 25.8671 21.7495 25.908 21.6914C26 21.5609 25.9921 13.8546 25.9 13.865C25.8635 13.8691 25.6311 13.9652 25.3835 14.0784ZM14.8693 23.1237C14.54 23.2563 14.2107 23.3891 13.8816 23.522C12.8875 23.9248 13.0823 23.9381 11.8998 23.3868C11.1121 23.0196 10.7726 22.9063 10.6253 22.9613C10.5147 23.0026 9.5634 23.4034 8.51103 23.852C7.45874 24.3007 6.56126 24.6677 6.51661 24.6677C6.0751 24.6677 6.8091 25.0784 9.64145 26.4164L12.9631 27.9854L14.3607 27.3393C15.1294 26.9838 16.6798 26.2722 17.8062 25.7578C18.9324 25.2432 19.84 24.8089 19.823 24.7925C19.8059 24.7762 18.8622 24.3224 17.7258 23.784L15.6595 22.8053L14.8693 23.1237Z" fill="#05A3C9"/>
</g>
<defs>
<clipPath id="clip0_11_8">
<rect width="26" height="28" fill="white"/>
</clipPath>
</defs>
</svg>
